<?xml version="1.0" encoding="UTF-8" standalone="no"?>
<!DOCTYPE svg PUBLIC "-//W3C//DTD SVG 1.1//EN"
 "http://www.w3.org/Graphics/SVG/1.1/DTD/svg11.dtd">
<!-- Generated by graphviz version 2.47.0 (20210316.0004)
 -->
<!-- Title: dependencies Pages: 1 -->
<svg width="760pt" height="211pt"
 viewBox="0.00 0.00 760.00 211.00" xmlns="http://www.w3.org/2000/svg" xmlns:xlink="http://www.w3.org/1999/xlink">
<g id="graph0" class="graph" transform="scale(1 1) rotate(0) translate(4 207)">
<title>dependencies</title>
<polygon fill="white" stroke="transparent" points="-4,4 -4,-207 756,-207 756,4 -4,4"/>
<text text-anchor="start" x="355.01" y="-42.4" font-family="Times-12" font-weight="bold" font-size="14.00">Legend</text>
<polygon fill="#ffffb3" stroke="transparent" points="142,-10 142,-30 162,-30 162,-10 142,-10"/>
<text text-anchor="start" x="165.63" y="-15.4" font-family="Times-12" font-size="14.00"> &#160;Declarations</text>
<polygon fill="#8dd3c7" stroke="transparent" points="255,-10 255,-30 275,-30 275,-10 255,-10"/>
<text text-anchor="start" x="278.73" y="-15.4" font-family="Times-12" font-size="14.00"> &#160;Module</text>
<polygon fill="#80b1d3" stroke="transparent" points="341,-10 341,-30 361,-30 361,-10 341,-10"/>
<text text-anchor="start" x="364.78" y="-15.4" font-family="Times-12" font-size="14.00"> &#160;Bootstrap</text>
<polygon fill="#fdb462" stroke="transparent" points="438,-10 438,-30 458,-30 458,-10 438,-10"/>
<text text-anchor="start" x="461.67" y="-15.4" font-family="Times-12" font-size="14.00"> &#160;Providers</text>
<polygon fill="#fb8072" stroke="transparent" points="534,-10 534,-30 554,-30 554,-10 534,-10"/>
<text text-anchor="start" x="557.73" y="-15.4" font-family="Times-12" font-size="14.00"> &#160;Exports</text>
<g id="clust1" class="cluster">
<title>cluster_CoreModule</title>
<polygon fill="none" stroke="black" stroke-dasharray="1,5" points="8,-70 8,-195 744,-195 744,-70 8,-70"/>
</g>
<g id="clust6" class="cluster">
<title>cluster_CoreModule_imports</title>
<polygon fill="none" stroke="black" points="588,-78 588,-130 736,-130 736,-78 588,-78"/>
</g>
<g id="clust2" class="cluster">
<title>cluster_CoreModule_declarations</title>
<polygon fill="none" stroke="black" points="148,-78 148,-130 580,-130 580,-78 148,-78"/>
</g>
<g id="clust9" class="cluster">
<title>cluster_CoreModule_providers</title>
<polygon fill="none" stroke="black" points="16,-78 16,-130 140,-130 140,-78 16,-78"/>
</g>
<!-- LoginComponent -->
<g id="node1" class="node">
<title>LoginComponent</title>
<polygon fill="#ffffb3" stroke="black" points="572.28,-122 457.72,-122 457.72,-86 572.28,-86 572.28,-122"/>
<text text-anchor="middle" x="515" y="-99.8" font-family="Times,serif" font-size="14.00">LoginComponent</text>
</g>
<!-- CoreModule -->
<g id="node4" class="node">
<title>CoreModule</title>
<polygon fill="#8dd3c7" stroke="black" points="414.26,-187 411.26,-191 390.26,-191 387.26,-187 327.74,-187 327.74,-151 414.26,-151 414.26,-187"/>
<text text-anchor="middle" x="371" y="-164.8" font-family="Times,serif" font-size="14.00">CoreModule</text>
</g>
<!-- LoginComponent&#45;&gt;CoreModule -->
<g id="edge1" class="edge">
<title>LoginComponent&#45;&gt;CoreModule</title>
<path fill="none" stroke="black" d="M515,-122.02C515,-139.37 515,-163 515,-163 515,-163 424.6,-163 424.6,-163"/>
<polygon fill="black" stroke="black" points="424.6,-159.5 414.6,-163 424.6,-166.5 424.6,-159.5"/>
</g>
<!-- NotFoundComponent -->
<g id="node2" class="node">
<title>NotFoundComponent</title>
<polygon fill="#ffffb3" stroke="black" points="440.11,-122 301.89,-122 301.89,-86 440.11,-86 440.11,-122"/>
<text text-anchor="middle" x="371" y="-99.8" font-family="Times,serif" font-size="14.00">NotFoundComponent</text>
</g>
<!-- NotFoundComponent&#45;&gt;CoreModule -->
<g id="edge2" class="edge">
<title>NotFoundComponent&#45;&gt;CoreModule</title>
<path fill="none" stroke="black" d="M371,-122.11C371,-122.11 371,-140.99 371,-140.99"/>
<polygon fill="black" stroke="black" points="367.5,-140.99 371,-150.99 374.5,-140.99 367.5,-140.99"/>
</g>
<!-- RegisterComponent -->
<g id="node3" class="node">
<title>RegisterComponent</title>
<polygon fill="#ffffb3" stroke="black" points="283.98,-122 156.02,-122 156.02,-86 283.98,-86 283.98,-122"/>
<text text-anchor="middle" x="220" y="-99.8" font-family="Times,serif" font-size="14.00">RegisterComponent</text>
</g>
<!-- RegisterComponent&#45;&gt;CoreModule -->
<g id="edge3" class="edge">
<title>RegisterComponent&#45;&gt;CoreModule</title>
<path fill="none" stroke="black" d="M220,-122.02C220,-139.37 220,-163 220,-163 220,-163 317.73,-163 317.73,-163"/>
<polygon fill="black" stroke="black" points="317.73,-166.5 327.73,-163 317.73,-159.5 317.73,-166.5"/>
</g>
<!-- CoreRoutingModule -->
<g id="node5" class="node">
<title>CoreRoutingModule</title>
<polygon fill="#8dd3c7" stroke="black" points="727.88,-122 724.88,-126 703.88,-126 700.88,-122 596.12,-122 596.12,-86 727.88,-86 727.88,-122"/>
<text text-anchor="middle" x="662" y="-99.8" font-family="Times,serif" font-size="14.00">CoreRoutingModule</text>
</g>
<!-- CoreRoutingModule&#45;&gt;CoreModule -->
<g id="edge4" class="edge">
<title>CoreRoutingModule&#45;&gt;CoreModule</title>
<path fill="none" stroke="black" d="M662,-122.28C662,-143.32 662,-175 662,-175 662,-175 424.57,-175 424.57,-175"/>
<polygon fill="black" stroke="black" points="424.57,-171.5 414.57,-175 424.57,-178.5 424.57,-171.5"/>
</g>
<!-- ApiService -->
<g id="node6" class="node">
<title>ApiService</title>
<ellipse fill="#fdb462" stroke="black" cx="78" cy="-104" rx="54.45" ry="18"/>
<text text-anchor="middle" x="78" y="-99.8" font-family="Times,serif" font-size="14.00">ApiService</text>
</g>
<!-- ApiService&#45;&gt;CoreModule -->
<g id="edge5" class="edge">
<title>ApiService&#45;&gt;CoreModule</title>
<path fill="none" stroke="black" d="M78,-122.28C78,-143.32 78,-175 78,-175 78,-175 317.45,-175 317.45,-175"/>
<polygon fill="black" stroke="black" points="317.45,-178.5 327.45,-175 317.45,-171.5 317.45,-178.5"/>
</g>
</g>
</svg>
