<?xml version="1.0" encoding="UTF-8" standalone="no"?>
<!DOCTYPE svg PUBLIC "-//W3C//DTD SVG 1.1//EN"
 "http://www.w3.org/Graphics/SVG/1.1/DTD/svg11.dtd">
<!-- Generated by graphviz version 2.47.0 (20210316.0004)
 -->
<!-- Title: dependencies Pages: 1 -->
<svg width="2493pt" height="211pt"
 viewBox="0.00 0.00 2493.00 211.00" xmlns="http://www.w3.org/2000/svg" xmlns:xlink="http://www.w3.org/1999/xlink">
<g id="graph0" class="graph" transform="scale(1 1) rotate(0) translate(4 207)">
<title>dependencies</title>
<polygon fill="white" stroke="transparent" points="-4,4 -4,-207 2489,-207 2489,4 -4,4"/>
<text text-anchor="start" x="1221.51" y="-42.4" font-family="Times-12" font-weight="bold" font-size="14.00">Legend</text>
<polygon fill="#ffffb3" stroke="transparent" points="1008.5,-10 1008.5,-30 1028.5,-30 1028.5,-10 1008.5,-10"/>
<text text-anchor="start" x="1032.13" y="-15.4" font-family="Times-12" font-size="14.00"> &#160;Declarations</text>
<polygon fill="#8dd3c7" stroke="transparent" points="1121.5,-10 1121.5,-30 1141.5,-30 1141.5,-10 1121.5,-10"/>
<text text-anchor="start" x="1145.23" y="-15.4" font-family="Times-12" font-size="14.00"> &#160;Module</text>
<polygon fill="#80b1d3" stroke="transparent" points="1207.5,-10 1207.5,-30 1227.5,-30 1227.5,-10 1207.5,-10"/>
<text text-anchor="start" x="1231.28" y="-15.4" font-family="Times-12" font-size="14.00"> &#160;Bootstrap</text>
<polygon fill="#fdb462" stroke="transparent" points="1304.5,-10 1304.5,-30 1324.5,-30 1324.5,-10 1304.5,-10"/>
<text text-anchor="start" x="1328.17" y="-15.4" font-family="Times-12" font-size="14.00"> &#160;Providers</text>
<polygon fill="#fb8072" stroke="transparent" points="1400.5,-10 1400.5,-30 1420.5,-30 1420.5,-10 1400.5,-10"/>
<text text-anchor="start" x="1424.23" y="-15.4" font-family="Times-12" font-size="14.00"> &#160;Exports</text>
<g id="clust1" class="cluster">
<title>cluster_ShopModule</title>
<polygon fill="none" stroke="black" stroke-dasharray="1,5" points="8,-70 8,-195 2477,-195 2477,-70 8,-70"/>
</g>
<g id="clust2" class="cluster">
<title>cluster_ShopModule_declarations</title>
<polygon fill="none" stroke="black" points="278,-78 278,-130 2469,-130 2469,-78 278,-78"/>
</g>
<g id="clust16" class="cluster">
<title>cluster_ShopModule_imports</title>
<polygon fill="none" stroke="black" points="16,-78 16,-130 270,-130 270,-78 16,-78"/>
</g>
<!-- AddProductFormComponent -->
<g id="node1" class="node">
<title>AddProductFormComponent</title>
<polygon fill="#ffffb3" stroke="black" points="2460.82,-122 2281.18,-122 2281.18,-86 2460.82,-86 2460.82,-122"/>
<text text-anchor="middle" x="2371" y="-99.8" font-family="Times,serif" font-size="14.00">AddProductFormComponent</text>
</g>
<!-- ShopModule -->
<g id="node14" class="node">
<title>ShopModule</title>
<polygon fill="#8dd3c7" stroke="black" points="1187.33,-187 1184.33,-191 1163.33,-191 1160.33,-187 1098.67,-187 1098.67,-151 1187.33,-151 1187.33,-187"/>
<text text-anchor="middle" x="1143" y="-164.8" font-family="Times,serif" font-size="14.00">ShopModule</text>
</g>
<!-- AddProductFormComponent&#45;&gt;ShopModule -->
<g id="edge1" class="edge">
<title>AddProductFormComponent&#45;&gt;ShopModule</title>
<path fill="none" stroke="black" d="M2371,-122.32C2371,-145.66 2371,-183 2371,-183 2371,-183 1197.43,-183 1197.43,-183"/>
<polygon fill="black" stroke="black" points="1197.43,-179.5 1187.43,-183 1197.43,-186.5 1197.43,-179.5"/>
</g>
<!-- AddProductsCSVComponent -->
<g id="node2" class="node">
<title>AddProductsCSVComponent</title>
<polygon fill="#ffffb3" stroke="black" points="2263.66,-122 2082.34,-122 2082.34,-86 2263.66,-86 2263.66,-122"/>
<text text-anchor="middle" x="2173" y="-99.8" font-family="Times,serif" font-size="14.00">AddProductsCSVComponent</text>
</g>
<!-- AddProductsCSVComponent&#45;&gt;ShopModule -->
<g id="edge2" class="edge">
<title>AddProductsCSVComponent&#45;&gt;ShopModule</title>
<path fill="none" stroke="black" d="M2173,-122.29C2173,-144.21 2173,-178 2173,-178 2173,-178 1197.26,-178 1197.26,-178"/>
<polygon fill="black" stroke="black" points="1197.26,-174.5 1187.26,-178 1197.26,-181.5 1197.26,-174.5"/>
</g>
<!-- AdminAnalitycsComponent -->
<g id="node3" class="node">
<title>AdminAnalitycsComponent</title>
<polygon fill="#ffffb3" stroke="black" points="2063.87,-122 1890.13,-122 1890.13,-86 2063.87,-86 2063.87,-122"/>
<text text-anchor="middle" x="1977" y="-99.8" font-family="Times,serif" font-size="14.00">AdminAnalitycsComponent</text>
</g>
<!-- AdminAnalitycsComponent&#45;&gt;ShopModule -->
<g id="edge3" class="edge">
<title>AdminAnalitycsComponent&#45;&gt;ShopModule</title>
<path fill="none" stroke="black" d="M1977,-122.03C1977,-142.77 1977,-174 1977,-174 1977,-174 1197.25,-174 1197.25,-174"/>
<polygon fill="black" stroke="black" points="1197.25,-170.5 1187.25,-174 1197.25,-177.5 1197.25,-170.5"/>
</g>
<!-- AdminComponent -->
<g id="node4" class="node">
<title>AdminComponent</title>
<polygon fill="#ffffb3" stroke="black" points="1872.22,-122 1751.78,-122 1751.78,-86 1872.22,-86 1872.22,-122"/>
<text text-anchor="middle" x="1812" y="-99.8" font-family="Times,serif" font-size="14.00">AdminComponent</text>
</g>
<!-- AdminComponent&#45;&gt;ShopModule -->
<g id="edge4" class="edge">
<title>AdminComponent&#45;&gt;ShopModule</title>
<path fill="none" stroke="black" d="M1812,-122.11C1812,-141.34 1812,-169 1812,-169 1812,-169 1197.41,-169 1197.41,-169"/>
<polygon fill="black" stroke="black" points="1197.41,-165.5 1187.41,-169 1197.41,-172.5 1197.41,-165.5"/>
</g>
<!-- CarouselHeaderComponent -->
<g id="node5" class="node">
<title>CarouselHeaderComponent</title>
<polygon fill="#ffffb3" stroke="black" points="1733.51,-122 1562.49,-122 1562.49,-86 1733.51,-86 1733.51,-122"/>
<text text-anchor="middle" x="1648" y="-99.8" font-family="Times,serif" font-size="14.00">CarouselHeaderComponent</text>
</g>
<!-- CarouselHeaderComponent&#45;&gt;ShopModule -->
<g id="edge5" class="edge">
<title>CarouselHeaderComponent&#45;&gt;ShopModule</title>
<path fill="none" stroke="black" d="M1648,-122.3C1648,-140.27 1648,-165 1648,-165 1648,-165 1197.37,-165 1197.37,-165"/>
<polygon fill="black" stroke="black" points="1197.37,-161.5 1187.37,-165 1197.37,-168.5 1197.37,-161.5"/>
</g>
<!-- ExcelProductsTableComponent -->
<g id="node6" class="node">
<title>ExcelProductsTableComponent</title>
<polygon fill="#ffffb3" stroke="black" points="1544.07,-122 1349.93,-122 1349.93,-86 1544.07,-86 1544.07,-122"/>
<text text-anchor="middle" x="1447" y="-99.8" font-family="Times,serif" font-size="14.00">ExcelProductsTableComponent</text>
</g>
<!-- ExcelProductsTableComponent&#45;&gt;ShopModule -->
<g id="edge6" class="edge">
<title>ExcelProductsTableComponent&#45;&gt;ShopModule</title>
<path fill="none" stroke="black" d="M1447,-122.03C1447,-138.4 1447,-160 1447,-160 1447,-160 1197.2,-160 1197.2,-160"/>
<polygon fill="black" stroke="black" points="1197.2,-156.5 1187.2,-160 1197.2,-163.5 1197.2,-156.5"/>
</g>
<!-- HomeComponent -->
<g id="node7" class="node">
<title>HomeComponent</title>
<polygon fill="#ffffb3" stroke="black" points="1331.55,-122 1216.45,-122 1216.45,-86 1331.55,-86 1331.55,-122"/>
<text text-anchor="middle" x="1274" y="-99.8" font-family="Times,serif" font-size="14.00">HomeComponent</text>
</g>
<!-- HomeComponent&#45;&gt;ShopModule -->
<g id="edge7" class="edge">
<title>HomeComponent&#45;&gt;ShopModule</title>
<path fill="none" stroke="black" d="M1274,-122.19C1274,-137.18 1274,-156 1274,-156 1274,-156 1197.35,-156 1197.35,-156"/>
<polygon fill="black" stroke="black" points="1197.35,-152.5 1187.35,-156 1197.35,-159.5 1197.35,-152.5"/>
</g>
<!-- MainComponent -->
<g id="node8" class="node">
<title>MainComponent</title>
<polygon fill="#ffffb3" stroke="black" points="1198.38,-122 1087.62,-122 1087.62,-86 1198.38,-86 1198.38,-122"/>
<text text-anchor="middle" x="1143" y="-99.8" font-family="Times,serif" font-size="14.00">MainComponent</text>
</g>
<!-- MainComponent&#45;&gt;ShopModule -->
<g id="edge8" class="edge">
<title>MainComponent&#45;&gt;ShopModule</title>
<path fill="none" stroke="black" d="M1143,-122.11C1143,-122.11 1143,-140.99 1143,-140.99"/>
<polygon fill="black" stroke="black" points="1139.5,-140.99 1143,-150.99 1146.5,-140.99 1139.5,-140.99"/>
</g>
<!-- NavbarComponent -->
<g id="node9" class="node">
<title>NavbarComponent</title>
<polygon fill="#ffffb3" stroke="black" points="1069.03,-122 946.97,-122 946.97,-86 1069.03,-86 1069.03,-122"/>
<text text-anchor="middle" x="1008" y="-99.8" font-family="Times,serif" font-size="14.00">NavbarComponent</text>
</g>
<!-- NavbarComponent&#45;&gt;ShopModule -->
<g id="edge9" class="edge">
<title>NavbarComponent&#45;&gt;ShopModule</title>
<path fill="none" stroke="black" d="M1008,-122.19C1008,-137.18 1008,-156 1008,-156 1008,-156 1088.8,-156 1088.8,-156"/>
<polygon fill="black" stroke="black" points="1088.8,-159.5 1098.8,-156 1088.8,-152.5 1088.8,-159.5"/>
</g>
<!-- ProductComponent -->
<g id="node10" class="node">
<title>ProductComponent</title>
<polygon fill="#ffffb3" stroke="black" points="928.38,-122 803.62,-122 803.62,-86 928.38,-86 928.38,-122"/>
<text text-anchor="middle" x="866" y="-99.8" font-family="Times,serif" font-size="14.00">ProductComponent</text>
</g>
<!-- ProductComponent&#45;&gt;ShopModule -->
<g id="edge10" class="edge">
<title>ProductComponent&#45;&gt;ShopModule</title>
<path fill="none" stroke="black" d="M866,-122.03C866,-138.4 866,-160 866,-160 866,-160 1088.8,-160 1088.8,-160"/>
<polygon fill="black" stroke="black" points="1088.8,-163.5 1098.8,-160 1088.8,-156.5 1088.8,-163.5"/>
</g>
<!-- ProductsContainerComponent -->
<g id="node11" class="node">
<title>ProductsContainerComponent</title>
<polygon fill="#ffffb3" stroke="black" points="785.53,-122 600.47,-122 600.47,-86 785.53,-86 785.53,-122"/>
<text text-anchor="middle" x="693" y="-99.8" font-family="Times,serif" font-size="14.00">ProductsContainerComponent</text>
</g>
<!-- ProductsContainerComponent&#45;&gt;ShopModule -->
<g id="edge11" class="edge">
<title>ProductsContainerComponent&#45;&gt;ShopModule</title>
<path fill="none" stroke="black" d="M693,-122.3C693,-140.27 693,-165 693,-165 693,-165 1088.62,-165 1088.62,-165"/>
<polygon fill="black" stroke="black" points="1088.62,-168.5 1098.62,-165 1088.62,-161.5 1088.62,-168.5"/>
</g>
<!-- ProfileComponent -->
<g id="node12" class="node">
<title>ProfileComponent</title>
<polygon fill="#ffffb3" stroke="black" points="582.93,-122 463.07,-122 463.07,-86 582.93,-86 582.93,-122"/>
<text text-anchor="middle" x="523" y="-99.8" font-family="Times,serif" font-size="14.00">ProfileComponent</text>
</g>
<!-- ProfileComponent&#45;&gt;ShopModule -->
<g id="edge12" class="edge">
<title>ProfileComponent&#45;&gt;ShopModule</title>
<path fill="none" stroke="black" d="M523,-122.11C523,-141.34 523,-169 523,-169 523,-169 1088.41,-169 1088.41,-169"/>
<polygon fill="black" stroke="black" points="1088.41,-172.5 1098.41,-169 1088.41,-165.5 1088.41,-172.5"/>
</g>
<!-- ShoppingCartComponent -->
<g id="node13" class="node">
<title>ShoppingCartComponent</title>
<polygon fill="#ffffb3" stroke="black" points="445.61,-122 286.39,-122 286.39,-86 445.61,-86 445.61,-122"/>
<text text-anchor="middle" x="366" y="-99.8" font-family="Times,serif" font-size="14.00">ShoppingCartComponent</text>
</g>
<!-- ShoppingCartComponent&#45;&gt;ShopModule -->
<g id="edge13" class="edge">
<title>ShoppingCartComponent&#45;&gt;ShopModule</title>
<path fill="none" stroke="black" d="M366,-122.03C366,-142.77 366,-174 366,-174 366,-174 1088.72,-174 1088.72,-174"/>
<polygon fill="black" stroke="black" points="1088.72,-177.5 1098.72,-174 1088.72,-170.5 1088.72,-177.5"/>
</g>
<!-- CoreModule -->
<g id="node15" class="node">
<title>CoreModule</title>
<polygon fill="#8dd3c7" stroke="black" points="262.26,-122 259.26,-126 238.26,-126 235.26,-122 175.74,-122 175.74,-86 262.26,-86 262.26,-122"/>
<text text-anchor="middle" x="219" y="-99.8" font-family="Times,serif" font-size="14.00">CoreModule</text>
</g>
<!-- CoreModule&#45;&gt;ShopModule -->
<g id="edge14" class="edge">
<title>CoreModule&#45;&gt;ShopModule</title>
<path fill="none" stroke="black" d="M219,-122.29C219,-144.21 219,-178 219,-178 219,-178 1088.74,-178 1088.74,-178"/>
<polygon fill="black" stroke="black" points="1088.74,-181.5 1098.74,-178 1088.74,-174.5 1088.74,-181.5"/>
</g>
<!-- ShopRoutingModule -->
<g id="node16" class="node">
<title>ShopRoutingModule</title>
<polygon fill="#8dd3c7" stroke="black" points="157.95,-122 154.95,-126 133.95,-126 130.95,-122 24.05,-122 24.05,-86 157.95,-86 157.95,-122"/>
<text text-anchor="middle" x="91" y="-99.8" font-family="Times,serif" font-size="14.00">ShopRoutingModule</text>
</g>
<!-- ShopRoutingModule&#45;&gt;ShopModule -->
<g id="edge15" class="edge">
<title>ShopRoutingModule&#45;&gt;ShopModule</title>
<path fill="none" stroke="black" d="M91,-122.32C91,-145.66 91,-183 91,-183 91,-183 1088.8,-183 1088.8,-183"/>
<polygon fill="black" stroke="black" points="1088.8,-186.5 1098.8,-183 1088.8,-179.5 1088.8,-186.5"/>
</g>
</g>
</svg>
